<svg xmlns="http://www.w3.org/2000/svg" xmlns:xlink="http://www.w3.org/1999/xlink" aria-hidden="true" role="img" width="100%" height="100%" preserveAspectRatio="xMidYMid meet" viewBox="0 0 1024 300">
<path fill="#EC1B90" 
	d="
M472.531342,1.000000 
	C473.000000,47.104565 473.000000,93.209129 473.000000,140.854279 
	C478.201660,134.342880 482.652161,129.001648 486.852356,123.470390 
	C498.841705,107.681656 510.661926,91.764191 522.696716,76.010437 
	C526.449097,71.098503 530.569763,66.452209 534.746094,61.889576 
	C535.961060,60.562180 537.946289,59.136372 539.588562,59.124252 
	C563.567688,58.947300 587.548645,59.002701 612.286804,59.002701 
	C585.110901,91.570572 558.358032,123.631538 531.378906,155.963608 
	C536.128235,157.758392 541.038574,159.624832 545.956726,161.470596 
	C559.797363,166.664932 570.220398,176.316544 578.844299,187.830597 
	C591.767395,205.084610 598.854492,224.810913 600.934326,246.197296 
	C602.291931,260.157013 602.893127,274.190338 603.862488,288.627411 
	C582.746826,288.627411 562.695007,288.627411 542.000000,288.627411 
	C542.000000,282.771912 542.338013,276.815948 541.933289,270.910889 
	C540.932068,256.302246 538.575134,241.840591 530.894043,229.129547 
	C523.009521,216.081924 510.814056,208.357559 495.827423,206.206940 
	C487.847229,205.061768 479.567535,206.003891 471.098083,206.003891 
	C471.098083,233.717209 471.098083,260.998260 471.098083,288.638855 
	C451.056030,288.638855 431.337921,288.638855 411.000000,288.638855 
	C411.000000,193.090195 411.000000,97.513756 411.000000,1.468657 
	C431.354218,1.000000 451.708466,1.000000 472.531342,1.000000 
z"/>
<path fill="#EC1B90" 
	d="
M1.000000,152.468658 
	C4.236189,142.886703 7.370367,133.735550 10.734340,124.669685 
	C14.956223,113.291756 22.005634,103.582031 29.970917,94.671371 
	C49.053410,73.324013 73.376106,60.760113 101.283134,56.257141 
	C130.653778,51.518002 158.432175,57.812389 183.725540,73.562454 
	C191.441956,78.367447 199.231873,83.670197 205.385132,90.245171 
	C219.411530,105.232903 229.143768,122.927498 235.073868,142.744232 
	C239.274902,156.782898 239.840088,171.118347 238.818878,185.410263 
	C237.484161,204.090027 231.584656,221.579025 221.136093,237.280090 
	C216.352142,244.468948 212.037476,252.360657 205.825394,258.115021 
	C196.993622,266.296051 186.971329,273.367004 176.795197,279.876648 
	C164.416077,287.795532 150.112579,291.026672 135.850449,293.881104 
	C133.115952,294.428375 130.214905,294.143402 127.195343,294.621185 
	C122.643097,295.000000 118.286201,295.000000 113.267929,294.621704 
	C109.785812,294.142853 106.912888,294.353027 104.153076,293.889587 
	C89.803505,291.479767 75.649086,288.264526 63.331825,280.010498 
	C54.252121,273.926025 44.682941,268.244202 36.731476,260.873169 
	C20.982203,246.273514 10.316224,228.119202 4.025938,207.513489 
	C2.868260,203.721161 2.001199,199.840103 0.999999,196.000000 
	C1.000000,181.645767 1.000000,167.291550 1.000000,152.468658 
M168.935867,146.684326 
	C168.031616,145.316544 167.114288,143.957199 166.225113,142.579697 
	C156.942734,128.199600 143.985504,118.316887 127.090813,116.265915 
	C100.449905,113.031776 76.970757,127.622437 67.892242,153.033249 
	C64.225983,163.295135 62.558578,173.696960 65.023262,184.440964 
	C68.622749,200.131882 73.947632,214.420227 89.368500,223.123550 
	C108.800049,234.090408 127.986351,236.325058 147.323212,224.064209 
	C153.450394,220.179199 159.416595,215.329300 163.882355,209.677231 
	C174.447861,196.305054 178.092987,180.659439 174.852615,163.862289 
	C173.764374,158.221237 171.056839,152.892563 168.935867,146.684326 
z"/>
<path fill="#EC1B90" 
	d="
M729.468628,295.000000 
	C722.464966,293.329590 715.776978,292.102692 709.421509,289.911438 
	C682.895813,280.766022 662.007019,264.677185 649.627625,239.008591 
	C644.132690,227.614944 640.866272,215.600067 640.873230,202.588669 
	C640.894043,163.655701 640.398315,124.721664 639.944824,85.789902 
	C639.854797,78.054184 639.057190,70.326706 638.529480,61.672306 
	C659.979614,60.736671 680.674927,59.833969 702.000000,58.903790 
	C702.000000,61.099350 702.000000,62.869610 702.000000,64.639870 
	C702.000000,99.136330 701.758728,133.635452 702.138977,168.127731 
	C702.261780,179.264526 703.496094,190.461884 705.156860,201.490768 
	C707.312012,215.802948 723.489014,230.565994 737.888855,233.084091 
	C749.802795,235.167496 759.630066,231.502121 768.629639,223.990143 
	C778.481445,215.766815 782.385437,204.474762 784.887085,192.636108 
	C786.960327,182.825363 786.597595,172.854446 786.279419,162.754944 
	C785.445435,136.283966 786.097595,109.768677 785.938293,83.272362 
	C785.892761,75.713837 785.097656,68.159828 784.685242,61.255501 
	C806.812073,61.255501 828.214233,61.255501 849.019348,61.255501 
	C849.019348,80.913544 849.019775,99.311127 849.018555,117.708702 
	C849.018494,119.041794 849.000793,120.374878 849.000793,121.707970 
	C848.999695,147.538651 849.218750,173.371689 848.941223,199.199402 
	C848.636536,227.552246 838.377380,251.814911 816.828735,270.488922 
	C801.560181,283.720581 783.496704,291.539642 763.180847,294.633514 
	C751.979126,295.000000 740.958191,295.000000 729.468628,295.000000 
z"/>
<path fill="#EC1B90" 
	d="
M987.000000,292.531342 
	C966.531250,294.141479 947.596802,289.376465 930.429138,278.084930 
	C911.523010,265.649994 899.209045,248.064331 890.957397,227.298676 
	C886.753784,216.720184 884.181824,205.830780 884.008789,194.430847 
	C883.645630,170.503845 883.229797,146.576920 883.033142,122.648338 
	C882.872925,103.155319 883.130066,83.658821 882.962769,64.165924 
	C882.800293,45.235012 882.331055,26.306755 882.003479,7.377213 
	C881.975403,5.753386 881.999817,4.128652 881.999817,2.255095 
	C903.040833,2.255095 923.639893,2.255095 944.767456,2.255095 
	C944.767456,20.901672 944.767456,39.625069 944.767456,59.001015 
	C958.877197,59.001015 972.469910,59.001015 986.531372,59.000507 
	C987.000000,79.687561 987.000000,100.375122 986.531372,121.531357 
	C973.147461,122.000023 960.232178,122.000023 947.000244,122.000023 
	C947.000244,141.569244 946.853577,160.516098 947.091675,179.458115 
	C947.161011,184.973236 947.629395,190.672958 949.124329,195.945145 
	C953.689087,212.044144 963.048950,223.978210 980.209290,227.848557 
	C983.570557,228.606644 986.151794,229.393921 987.000000,233.000000 
	C987.000000,252.687561 987.000000,272.375122 987.000000,292.531342 
z"/>
<path fill="#EC1B90" 
	d="
M332.795898,288.998291 
	C312.038605,288.999634 291.763367,288.999634 271.001709,288.999634 
	C271.001709,286.759460 271.001709,284.974823 271.001709,283.190186 
	C271.001526,244.880905 270.622986,206.566315 271.162659,168.264633 
	C271.427826,149.445511 274.726410,131.041840 281.124420,113.030312 
	C285.678619,100.209343 292.191559,88.922348 302.360382,80.631096 
	C311.448303,73.221184 321.966675,67.132561 332.670380,62.251469 
	C344.964966,56.644901 358.190155,53.160419 371.976105,52.908710 
	C372.732208,52.894909 373.479431,52.394264 375.137817,51.789429 
	C375.137817,74.995476 375.137817,97.765419 375.137817,120.563484 
	C371.290649,121.010475 367.074646,121.494843 362.860016,121.991005 
	C348.981506,123.624809 340.661621,132.450333 337.105469,145.402451 
	C336.250549,148.516144 336.049103,151.889465 336.044037,155.144165 
	C335.977112,198.117081 336.018066,241.090149 335.935089,284.063019 
	C335.931458,285.931610 337.533386,289.198975 332.795898,288.998291 
z"/>
</svg>